<svg width="24" height="23" viewBox="0 0 24 23" fill="none" xmlns="http://www.w3.org/2000/svg">
<path d="M13.5703 16.9605C12.9813 16.4607 12.2313 16.1898 11.4583 16.1974C10.6553 16.1901 9.88027 16.4914 9.29327 17.0391C8.99027 17.3066 8.75027 17.6373 8.58927 18.0079C8.42727 18.3785 8.34927 18.7801 8.36027 19.1841C8.36027 20.1436 8.66427 20.8854 9.27127 21.4094C9.87827 21.9335 10.6593 22.2136 11.4613 22.1953C12.2463 22.2075 13.0063 21.9227 13.5903 21.3979C14.1893 20.8663 14.4893 20.1284 14.4893 19.1841C14.4903 18.2115 14.1843 17.4703 13.5703 16.9605Z" fill="#EB0045"/>
<path d="M6.90728 12.7358C6.66728 12.9943 6.53428 13.335 6.53628 13.6882C6.53828 14.0414 6.67528 14.3805 6.91928 14.636C7.16328 14.8915 7.49528 15.0443 7.84828 15.063C8.20028 15.0817 8.54728 14.965 8.81628 14.7368C9.54728 14.0433 10.5243 13.6681 11.5313 13.6936C12.5383 13.719 13.4943 14.1431 14.1893 14.8727C14.4433 15.135 14.7903 15.2865 15.1563 15.294C15.5213 15.3015 15.8743 15.1645 16.1393 14.9128C16.4033 14.6611 16.5583 14.3151 16.5693 13.95C16.5793 13.5849 16.4463 13.2303 16.1963 12.9634C14.9943 11.7031 13.3403 10.9714 11.5993 10.9287C9.85728 10.8861 8.17028 11.536 6.90728 12.7358Z" fill="#EB0045"/>
<path d="M3.93014 8.51446C3.68214 8.7716 3.54304 9.1146 3.54194 9.47184C3.54084 9.82908 3.67784 10.1729 3.92424 10.4316C4.17064 10.6902 4.50744 10.8437 4.86434 10.8599C5.22124 10.8761 5.57024 10.7539 5.83924 10.5186C7.40824 9.02955 9.50424 8.2236 11.6672 8.27763C13.8292 8.33165 15.8822 9.24124 17.3752 10.8068C17.6312 11.0604 17.9752 11.2044 18.3352 11.2082C18.6962 11.212 19.0432 11.0753 19.3042 10.8272C19.5652 10.579 19.7202 10.2389 19.7342 9.87906C19.7492 9.51914 19.6232 9.16769 19.3822 8.89926C17.3822 6.80225 14.6332 5.58408 11.7362 5.51194C8.83924 5.4398 6.03224 6.5196 3.93014 8.51446Z" fill="#EB0045"/>
<path d="M2.37024 6.47099C4.96244 4.01257 8.42424 2.68264 11.9952 2.77288C15.5672 2.86313 18.9572 4.36619 21.4212 6.9524C21.5452 7.0906 21.6952 7.20256 21.8632 7.28162C22.0312 7.36068 22.2132 7.40524 22.3982 7.41265C22.5842 7.42006 22.7692 7.39018 22.9422 7.32478C23.1162 7.25937 23.2742 7.15977 23.4092 7.03189C23.5432 6.904 23.6502 6.75044 23.7242 6.58031C23.7982 6.41018 23.8372 6.22694 23.8392 6.04146C23.8412 5.85598 23.8052 5.67204 23.7342 5.50056C23.6642 5.32907 23.5592 5.17352 23.4272 5.04315C20.4882 1.95844 16.4542 0.150792 12.1962 0.00901369C7.93724 -0.132764 3.79265 1.40266 0.654146 4.28502L0.397142 4.53063C0.269742 4.66019 0.169046 4.81357 0.100946 4.98202C0.0328459 5.15047 -0.00145284 5.33069 4.71569e-05 5.51239C0.00154716 5.69409 0.0388426 5.87371 0.109743 6.041C0.180743 6.20828 0.283946 6.35996 0.413446 6.48736C0.543046 6.61477 0.696447 6.71541 0.864847 6.78354C1.03335 6.85167 1.21354 6.88595 1.39524 6.88443C1.57694 6.88291 1.75654 6.84562 1.92384 6.77468C2.09114 6.70374 2.24284 6.60055 2.37024 6.47099Z" fill="#EB0045"/>
</svg>
