<svg xmlns="http://www.w3.org/2000/svg" width="149" height="50" viewBox="0 0 149 50" fill="none"><path d="M17.3571 36.6865C16.1563 36.0425 14.6024 35.4879 12.6953 35.0229C11.0928 34.6354 9.83743 34.3079 8.9292 34.0405C8.1473 33.8334 7.40906 33.4873 6.74978 33.0187C6.49659 32.8398 6.29067 32.6021 6.14976 32.326C6.00885 32.0499 5.93716 31.7436 5.94089 31.4337C5.94089 30.7296 6.30822 30.1417 7.04288 29.6701C7.77754 29.1986 8.69832 28.9628 9.80523 28.9628C10.8838 28.9628 11.7374 29.1423 12.3662 29.5015C13.0014 29.8682 13.5578 30.3568 14.0036 30.9392C14.4505 31.5304 14.9588 32.0727 15.5199 32.5569C15.9742 32.9219 16.5436 33.1135 17.1262 33.0973C17.9995 33.0973 18.6697 32.8724 19.137 32.4227C19.3699 32.2001 19.5532 31.9309 19.6751 31.6327C19.797 31.3345 19.8547 31.0139 19.8443 30.6919C19.8246 29.9831 19.5968 29.2958 19.1894 28.7155C18.6786 27.9753 18.0209 27.3483 17.2572 26.8734C16.2773 26.2622 15.2052 25.8133 14.0822 25.5438C12.682 25.1995 11.2437 25.0345 9.80195 25.0526C7.78027 25.0526 6.05442 25.3801 4.62439 26.035C3.19437 26.69 2.11202 27.5633 1.37736 28.6549C0.666053 29.6736 0.280127 30.8839 0.270458 32.1263C0.270458 33.5039 0.667262 34.6643 1.46087 35.6075C2.32854 36.6046 3.41677 37.3856 4.63913 37.8884C5.96545 38.4648 7.68421 39.015 9.7954 39.539C11.6708 39.9898 13.0151 40.4619 13.8284 40.9553C14.6417 41.4487 15.0499 42.2347 15.0532 43.3132C15.0532 44.0173 14.6597 44.6428 13.8726 45.1897C13.0856 45.7366 12.0785 46.0095 10.8515 46.0085C9.33856 46.0085 8.14433 45.7388 7.26885 45.1996C6.39336 44.6603 5.64069 43.8416 5.01083 42.7434C4.75605 42.2523 4.42438 41.8051 4.02837 41.4187C3.68287 41.1043 3.19 40.9471 2.54485 40.9471C2.20856 40.936 1.87355 40.994 1.56061 41.1177C1.24767 41.2413 0.963483 41.4279 0.725664 41.666C0.491829 41.8901 0.306727 42.1601 0.181919 42.459C0.0571106 42.758 -0.00472256 43.0794 0.000281153 43.4033C0.000281153 44.4218 0.374708 45.4364 1.12356 46.4473C1.87241 47.4581 3.03335 48.3009 4.60638 48.9755C6.17832 49.6501 8.06518 49.9869 10.267 49.9858C12.5747 49.9858 14.533 49.6752 16.1421 49.0541C17.7511 48.4329 18.9683 47.5193 19.7936 46.313C20.6177 45.1122 21.0298 43.6631 21.0298 41.9656C21.0451 40.892 20.7182 39.8413 20.0965 38.9659C19.471 38.0904 18.5579 37.3306 17.3571 36.6865Z" fill="#EB0045"/><path d="M57.474 26.0825C56.2601 25.4275 54.8148 25.1 53.138 25.1C51.7739 25.0831 50.4259 25.3954 49.2082 26.0105C48.0238 26.6163 46.9152 27.5486 45.8826 28.8072C45.2426 27.6452 44.2948 26.682 43.1431 26.0236C42.0351 25.4101 40.7094 25.1028 39.1658 25.1017C37.7661 25.0829 36.3813 25.3907 35.1214 26.0006C33.9075 26.5999 32.7695 27.536 31.7073 28.8088V28.2243C31.7073 27.2353 31.4262 26.4602 30.864 25.8991C30.5896 25.6211 30.2609 25.4024 29.8983 25.2568C29.5358 25.1112 29.1472 25.0416 28.7567 25.0526C28.3622 25.0379 27.9694 25.1108 27.6065 25.2659C27.2435 25.4211 26.9194 25.6546 26.6575 25.9499C26.1258 26.5492 25.8595 27.4257 25.8584 28.5796V46.1214C25.8584 47.3953 26.1542 48.3581 26.7459 49.0098C27.0317 49.3297 27.3839 49.5834 27.7778 49.753C28.1718 49.9227 28.598 50.0044 29.0268 49.9923C29.456 50.0073 29.8832 49.927 30.2776 49.7571C30.672 49.5872 31.0238 49.332 31.3078 49.0098C31.8842 48.3549 32.1723 47.3921 32.1723 46.1214V37.8327C32.1723 35.2554 32.4905 33.2779 33.127 31.9003C33.7634 30.5227 35.0853 29.8339 37.0928 29.8339C38.0949 29.8339 38.8285 30.1068 39.2935 30.6526C39.78 31.251 40.0775 31.9806 40.1483 32.7485C40.2719 33.9451 40.3265 35.1479 40.312 36.3508V46.123C40.312 47.4123 40.6002 48.3783 41.1766 49.0213C41.4586 49.3386 41.8073 49.5898 42.1976 49.7568C42.5879 49.9238 43.0103 50.0025 43.4346 49.9874C44.392 49.9874 45.1632 49.6654 45.7483 49.0213C46.3334 48.3772 46.6254 47.4112 46.6243 46.123V37.9686C46.6243 35.3487 46.8492 33.5214 47.2989 32.4865C47.6816 31.7024 48.2673 31.0352 48.9953 30.5543C49.6734 30.0896 50.4755 29.8392 51.2976 29.8355C52.3008 29.8355 53.0496 30.1051 53.5441 30.6444C54.0466 31.2009 54.3646 31.8993 54.4545 32.6437C54.5803 33.695 54.635 34.7535 54.6183 35.8121V46.128C54.6183 47.4019 54.9141 48.3647 55.5058 49.0164C55.7914 49.3361 56.1433 49.5896 56.537 49.7593C56.9306 49.9289 57.3566 50.0107 57.7851 49.9989C58.7446 49.9989 59.5164 49.6768 60.1004 49.0328C60.6844 48.3887 60.9764 47.4226 60.9764 46.1345V34.1469C60.9764 31.766 60.7139 30.0194 60.1888 28.9071C59.608 27.7003 58.6568 26.7106 57.474 26.0825Z" fill="#EB0045"/><path d="M69.9612 25.0526C69.5512 25.0381 69.1429 25.1128 68.7646 25.2717C68.3863 25.4306 68.047 25.6698 67.7704 25.9728C67.2093 26.5874 66.9287 27.5011 66.9287 28.7139V46.2573C66.9287 47.4581 67.2093 48.3789 67.7704 49.0197C68.0399 49.3345 68.3767 49.5848 68.7559 49.752C69.1351 49.9192 69.547 49.9991 69.9612 49.9858C70.3779 49.9976 70.7922 49.9195 71.1759 49.7567C71.5597 49.594 71.9038 49.3504 72.1849 49.0426C72.77 48.4138 73.062 47.486 73.0609 46.259V28.5305C73.0609 27.4389 72.7689 26.5852 72.1849 25.9696C71.9001 25.6682 71.5547 25.4307 71.1714 25.2726C70.7881 25.1146 70.3756 25.0396 69.9612 25.0526Z" fill="#EB0045"/><path d="M72.1407 16.9604C71.5513 16.4603 70.8014 16.1894 70.0285 16.1973C69.2246 16.1895 68.4485 16.4908 67.8605 17.039C67.5577 17.3065 67.3173 17.6373 67.1563 18.008C66.9953 18.3786 66.9176 18.7801 66.9288 19.184C66.9288 20.1436 67.2317 20.8853 67.8376 21.4093C68.4454 21.9334 69.226 22.2135 70.0285 22.1953C70.8132 22.2075 71.5735 21.9226 72.1571 21.3978C72.7553 20.8662 73.0544 20.1283 73.0544 19.184C73.0588 18.2114 72.7542 17.4702 72.1407 16.9604Z" fill="#EB0045"/><path d="M92.1127 36.8667L97.0331 30.2383C97.4114 29.7639 97.7462 29.2564 98.0336 28.7221C98.2476 28.3085 98.3599 27.8499 98.3611 27.3843C98.3611 27.0669 98.2893 26.7536 98.1512 26.4678C98.0132 26.182 97.8123 25.9311 97.5637 25.7338C96.9995 25.2669 96.283 25.0244 95.5513 25.0526C94.9128 25.0308 94.2875 25.2375 93.7878 25.6355C93.3162 26.0252 92.7578 26.6693 92.1127 27.5677L88.2581 33.0023L84.2808 27.5644C83.8033 26.8686 83.2497 26.2283 82.6303 25.6552C82.1292 25.241 81.4935 25.0254 80.8438 25.0493C80.0197 25.0493 79.3532 25.2813 78.8445 25.7452C78.6059 25.9463 78.4138 26.1969 78.2818 26.4797C78.1497 26.7625 78.0808 27.0706 78.0799 27.3827C78.0799 28.1915 78.5067 29.1429 79.3603 30.2367L84.2726 36.865L78.7234 44.818C77.885 46.0188 77.4658 46.9396 77.4658 47.5804C77.4658 48.2212 77.7387 48.779 78.2845 49.2538C78.8309 49.7411 79.5422 50.0022 80.274 49.9841C80.9059 50.0085 81.5249 49.8012 82.0146 49.4012C82.472 49.0115 83.0298 48.3598 83.6881 47.4461L88.2581 40.9095L92.7054 47.4478C93.3342 48.332 93.892 48.976 94.3789 49.3799C94.8824 49.7897 95.5164 50.0047 96.1653 49.9858C96.8924 50.0054 97.6012 49.7565 98.1564 49.2866C98.4075 49.0882 98.6106 48.8357 98.7507 48.548C98.8907 48.2602 98.9641 47.9446 98.9653 47.6246C98.9653 46.9958 98.5287 46.0598 97.6554 44.8164L92.1127 36.8667Z" fill="#EB0045"/><path d="M106.402 25.0526C105.992 25.0381 105.584 25.1128 105.206 25.2717C104.827 25.4306 104.488 25.6698 104.211 25.9728C103.65 26.5874 103.369 27.5011 103.368 28.7139V46.2573C103.368 47.4581 103.649 48.3789 104.211 49.0197C104.481 49.3345 104.818 49.5848 105.197 49.752C105.576 49.9192 105.988 49.9991 106.402 49.9858C106.819 49.9974 107.233 49.9192 107.617 49.7564C108.001 49.5937 108.345 49.3502 108.626 49.0426C109.211 48.4138 109.503 47.486 109.502 46.259V28.5305C109.502 27.4389 109.21 26.5852 108.626 25.9696C108.341 25.6684 107.996 25.431 107.612 25.2729C107.229 25.1149 106.817 25.0398 106.402 25.0526Z" fill="#EB0045"/><path d="M108.581 16.9604C107.992 16.4606 107.242 16.1897 106.469 16.1973C105.666 16.19 104.891 16.4913 104.304 17.039C104.001 17.3065 103.761 17.6372 103.6 18.0078C103.438 18.3784 103.36 18.78 103.371 19.184C103.371 20.1435 103.675 20.8853 104.282 21.4093C104.889 21.9334 105.67 22.2135 106.472 22.1952C107.257 22.2074 108.017 21.9226 108.601 21.3978C109.2 20.8662 109.5 20.1283 109.5 19.184C109.501 18.2114 109.195 17.4702 108.581 16.9604Z" fill="#EB0045"/><path d="M136.552 29.0921C135.938 27.8207 134.939 26.7751 133.698 26.1038C132.365 25.3869 130.87 25.0249 129.357 25.0526C127.695 25.0526 126.222 25.3855 124.936 26.0514C123.65 26.7173 122.47 27.762 121.397 29.1854V28.4437C121.417 27.8001 121.282 27.1612 121.004 26.5803C120.774 26.1054 120.411 25.7073 119.959 25.4341C119.516 25.1767 119.011 25.0448 118.499 25.0526C117.615 25.0526 116.918 25.3408 116.41 25.9171C115.901 26.4935 115.646 27.3668 115.646 28.537V46.2573C115.646 47.4581 115.931 48.3789 116.5 49.0197C116.769 49.332 117.104 49.5808 117.481 49.7478C117.858 49.9149 118.267 49.9962 118.679 49.9858C119.097 49.9998 119.512 49.9239 119.898 49.7632C120.284 49.6024 120.63 49.3606 120.914 49.0541C121.49 48.434 121.779 47.5018 121.779 46.2573V38.5729C121.779 36.073 121.929 34.3657 122.229 33.451C122.601 32.3764 123.29 31.44 124.205 30.7656C125.069 30.124 126.118 29.7793 127.194 29.7831C128.87 29.7831 129.99 30.3185 130.552 31.3894C131.114 32.4603 131.395 34.0066 131.395 36.0283V46.2573C131.395 47.4581 131.68 48.3789 132.248 49.0197C132.524 49.3357 132.867 49.5864 133.252 49.7535C133.637 49.9206 134.054 49.9999 134.474 49.9858C134.886 49.9994 135.295 49.922 135.674 49.7589C136.052 49.5959 136.39 49.3513 136.663 49.0426C137.224 48.4138 137.505 47.4859 137.506 46.259V34.8444C137.52 33.7331 137.459 32.6221 137.326 31.5188C137.216 30.6699 136.954 29.8478 136.552 29.0921Z" fill="#EB0045"/><path d="M143.164 25.1803H140.279C140.157 25.1722 140.035 25.2082 139.937 25.2818C139.901 25.3174 139.872 25.3598 139.852 25.4066C139.832 25.4534 139.822 25.5037 139.822 25.5545C139.822 25.6052 139.832 25.6555 139.852 25.7023C139.872 25.7492 139.901 25.7916 139.937 25.8271C140.035 25.904 140.158 25.9409 140.282 25.9303H141.265V29.1855C141.253 29.3351 141.298 29.4836 141.391 29.6014C141.433 29.6464 141.483 29.6819 141.54 29.7056C141.596 29.7294 141.657 29.7407 141.718 29.7389C141.78 29.7414 141.841 29.7305 141.897 29.707C141.954 29.6835 142.004 29.648 142.046 29.603C142.138 29.4844 142.183 29.3354 142.17 29.1855V25.9303H143.161C143.286 25.94 143.41 25.9032 143.51 25.8271C143.546 25.792 143.575 25.7499 143.595 25.7033C143.615 25.6567 143.625 25.6067 143.625 25.5561C143.625 25.5055 143.615 25.4554 143.595 25.4089C143.575 25.3623 143.546 25.3202 143.51 25.2851C143.411 25.2087 143.288 25.1714 143.164 25.1803Z" fill="#EB0045"/><path d="M148.298 25.2834C148.174 25.2086 148.03 25.1727 147.885 25.1803H147.603C147.479 25.1747 147.354 25.1902 147.235 25.2261C147.162 25.2579 147.103 25.3164 147.071 25.3899C147.019 25.5157 146.977 25.6454 146.945 25.7779L146.29 28.2341L145.635 25.7779C145.604 25.6454 145.561 25.5157 145.509 25.3899C145.477 25.3164 145.419 25.2579 145.345 25.2261C145.226 25.1902 145.101 25.1747 144.977 25.1803H144.695C144.551 25.1727 144.407 25.2086 144.283 25.2834C144.226 25.3312 144.182 25.3926 144.155 25.4619C144.128 25.5311 144.119 25.606 144.129 25.6797V29.2247C144.118 29.364 144.16 29.5024 144.245 29.6128C144.284 29.6531 144.331 29.6851 144.383 29.7069C144.435 29.7287 144.491 29.74 144.547 29.74C144.603 29.74 144.659 29.7287 144.711 29.7069C144.763 29.6851 144.81 29.6531 144.849 29.6128C144.934 29.5025 144.974 29.3649 144.964 29.2264V26.1316L145.681 28.9824C145.706 29.0757 145.729 29.1658 145.753 29.2526C145.775 29.3356 145.807 29.4154 145.85 29.49C145.889 29.561 145.945 29.6212 146.013 29.6652C146.095 29.713 146.188 29.7369 146.282 29.734C146.4 29.7392 146.517 29.7014 146.609 29.6276C146.684 29.564 146.74 29.4822 146.773 29.3901C146.803 29.3033 146.84 29.1674 146.888 28.9824L147.607 26.1267V29.2198C147.596 29.3586 147.637 29.4965 147.723 29.6063C147.76 29.648 147.806 29.6811 147.857 29.7032C147.908 29.7252 147.964 29.7358 148.019 29.734C148.077 29.7365 148.134 29.7264 148.187 29.7043C148.24 29.6823 148.287 29.6488 148.326 29.6063C148.41 29.4959 148.451 29.3584 148.44 29.2198V25.6797C148.451 25.607 148.444 25.5328 148.419 25.4637C148.394 25.3945 148.352 25.3326 148.298 25.2834Z" fill="#EB0045"/><path d="M101.918 12.7358C101.678 12.9943 101.545 13.335 101.547 13.6882C101.549 14.0414 101.686 14.3805 101.93 14.636C102.174 14.8915 102.506 15.0443 102.859 15.063C103.211 15.0817 103.558 14.965 103.827 14.7368C104.558 14.0433 105.535 13.6681 106.542 13.6936C107.549 13.719 108.505 14.1431 109.2 14.8727C109.454 15.135 109.801 15.2865 110.167 15.294C110.532 15.3015 110.885 15.1645 111.15 14.9128C111.414 14.6611 111.569 14.3151 111.58 13.95C111.59 13.5849 111.457 13.2303 111.207 12.9634C110.005 11.7031 108.351 10.9714 106.61 10.9287C104.868 10.8861 103.181 11.536 101.918 12.7358Z" fill="#EB0045"/><path d="M98.9409 8.51452C98.6929 8.77166 98.5538 9.11466 98.5527 9.4719C98.5516 9.82914 98.6886 10.173 98.935 10.4317C99.1814 10.6903 99.5182 10.8438 99.8751 10.86C100.232 10.8762 100.581 10.754 100.85 10.5187C102.419 9.02961 104.515 8.22366 106.678 8.27769C108.84 8.33171 110.893 9.2413 112.386 10.8069C112.642 11.0605 112.986 11.2045 113.346 11.2083C113.707 11.2121 114.054 11.0754 114.315 10.8273C114.576 10.5791 114.731 10.239 114.745 9.87912C114.76 9.5192 114.634 9.16775 114.393 8.89932C112.393 6.80231 109.644 5.58414 106.747 5.512C103.85 5.43986 101.043 6.51966 98.9409 8.51452Z" fill="#EB0045"/><path d="M97.381 6.47099C99.9732 4.01257 103.435 2.68264 107.006 2.77288C110.578 2.86313 113.968 4.36619 116.432 6.9524C116.556 7.0906 116.706 7.20256 116.874 7.28162C117.042 7.36068 117.224 7.40524 117.409 7.41265C117.595 7.42006 117.78 7.39018 117.953 7.32478C118.127 7.25937 118.285 7.15977 118.42 7.03189C118.554 6.904 118.661 6.75044 118.735 6.58031C118.809 6.41018 118.848 6.22694 118.85 6.04146C118.852 5.85598 118.816 5.67204 118.745 5.50056C118.675 5.32907 118.57 5.17352 118.438 5.04315C115.499 1.95844 111.465 0.150792 107.207 0.00901374C102.948 -0.132764 98.8034 1.40266 95.6649 4.28502L95.4079 4.53063C95.2805 4.66019 95.1798 4.81357 95.1117 4.98202C95.0436 5.15047 95.0093 5.33069 95.0108 5.51239C95.0123 5.69409 95.0496 5.87371 95.1205 6.041C95.1915 6.20828 95.2947 6.35996 95.4242 6.48736C95.5538 6.61477 95.7072 6.71541 95.8756 6.78354C96.0441 6.85167 96.2243 6.88595 96.406 6.88443C96.5877 6.88291 96.7673 6.84562 96.9346 6.77468C97.1019 6.70374 97.2536 6.60055 97.381 6.47099Z" fill="#EB0045"/><script xmlns=""/></svg>