<svg width="49" height="49" viewBox="0 0 49 49" fill="none" xmlns="http://www.w3.org/2000/svg">
<rect width="49" height="49" fill="#D0E5E5"/>
<path fill-rule="evenodd" clip-rule="evenodd" d="M15.139 41.1157C14.591 41.1157 14.099 40.7928 13.874 40.2728L9.133 28.5558H4.363C4.00168 28.5513 3.65652 28.4053 3.40166 28.1492C3.14681 27.893 3.00259 27.5471 3 27.1858C3 26.4408 3.618 25.8228 4.363 25.8228H10.025C10.573 25.8228 11.065 26.1668 11.289 26.6658L14.837 35.4048L21.587 9.01975C21.6595 8.72152 21.8325 8.45737 22.0769 8.27177C22.3213 8.08617 22.6223 7.99046 22.929 8.00075C23.548 8.00075 24.095 8.45075 24.243 9.06875L28.388 27.7828L32.033 18.9948C32.1313 18.7647 32.2894 18.5651 32.4909 18.4168C32.6925 18.2686 32.9301 18.177 33.179 18.1518C33.677 18.1018 34.169 18.3488 34.443 18.7698L38.911 25.7948H43.898C44.643 25.7948 45.261 26.4128 45.261 27.1578C45.261 27.9018 44.643 28.5208 43.898 28.5208H38.166C37.9391 28.5189 37.7162 28.4615 37.5166 28.3536C37.317 28.2457 37.1468 28.0905 37.021 27.9018L33.571 22.4438L29.28 32.8198C29.1698 33.0854 28.979 33.3097 28.7344 33.4609C28.4898 33.6122 28.2039 33.6828 27.917 33.6628C27.6259 33.6409 27.3499 33.5249 27.1307 33.3322C26.9114 33.1395 26.761 32.8806 26.702 32.5948L22.852 15.2228L16.495 40.0967C16.347 40.6667 15.848 41.0667 15.279 41.1157H15.139Z" fill="#333333"/>
</svg>
