<svg width="189" height="34" viewBox="0 0 189 34" fill="none" xmlns="http://www.w3.org/2000/svg">
<path fill-rule="evenodd" clip-rule="evenodd" d="M12.139 33.438C11.591 33.438 11.099 33.115 10.874 32.595L6.133 20.878H1.363C1.00168 20.8736 0.656517 20.7276 0.401661 20.4714C0.146805 20.2153 0.00259115 19.8694 0 19.508C0 18.763 0.618 18.145 1.363 18.145H7.025C7.573 18.145 8.065 18.489 8.289 18.988L11.837 27.727L18.587 1.34202C18.6595 1.04379 18.8325 0.779637 19.0769 0.594038C19.3213 0.408439 19.6223 0.312727 19.929 0.323017C20.548 0.323017 21.095 0.773016 21.243 1.39102L25.388 20.105L29.033 11.317C29.1313 11.0869 29.2894 10.8874 29.4909 10.7391C29.6925 10.5908 29.9301 10.4993 30.179 10.474C30.677 10.424 31.169 10.671 31.443 11.092L35.911 18.117H40.898C41.643 18.117 42.261 18.735 42.261 19.48C42.261 20.224 41.643 20.843 40.898 20.843H35.166C34.9391 20.8411 34.7162 20.7837 34.5166 20.6758C34.317 20.5679 34.1468 20.4128 34.021 20.224L30.571 14.766L26.28 25.142C26.1698 25.4076 25.979 25.6319 25.7344 25.7832C25.4898 25.9345 25.2039 26.0051 24.917 25.985C24.6259 25.9632 24.3499 25.8472 24.1307 25.6545C23.9114 25.4618 23.761 25.2029 23.702 24.917L19.852 7.54502L13.495 32.419C13.347 32.989 12.848 33.389 12.279 33.438H12.139Z" fill="white"/>
<path d="M50.4868 16.4601H54.2098C54.8778 16.4601 55.4748 16.5571 55.9948 16.7331C56.5148 16.9091 56.9848 17.2321 57.4068 17.6741C57.8278 18.1241 58.1228 18.6641 58.2768 19.2621C58.4528 19.8591 58.5238 20.7021 58.5238 21.7211C58.5274 22.3766 58.485 23.0315 58.3968 23.6811C58.3067 24.2187 58.1135 24.7338 57.8278 25.1981C57.4838 25.7671 57.0338 26.2171 56.4648 26.5121C55.8958 26.8071 55.1518 26.9821 54.2308 26.9821H52.9668V33.7331H50.4868V16.4601ZM52.9668 24.6501H54.1608C54.6598 24.6501 55.0528 24.5731 55.3268 24.4251C55.6008 24.2781 55.7968 24.0811 55.9238 23.8281C56.0508 23.5751 56.1208 23.2801 56.1488 22.9081C56.1768 22.5641 56.1768 22.1631 56.1768 21.7141C56.1768 21.3141 56.1768 20.9201 56.1488 20.5691C56.1323 20.2439 56.0561 19.9246 55.9238 19.6271C55.8025 19.3673 55.6037 19.1514 55.3548 19.0091C55.1098 18.8621 54.7368 18.7841 54.2378 18.7841H52.9458V24.6431H52.9658L52.9668 24.6501ZM69.1028 29.8621C69.1028 30.4321 69.0048 30.9521 68.7798 31.4501C68.5548 31.9491 68.2808 32.3701 67.9088 32.7141C67.5407 33.0756 67.1127 33.3706 66.6438 33.5861C66.1448 33.7821 65.6538 33.9091 65.0778 33.9091C64.5383 33.9154 64.0038 33.8052 63.5108 33.5861C63.0289 33.3948 62.5967 33.0966 62.2468 32.7141C61.8857 32.3461 61.591 31.9185 61.3758 31.4501C61.1674 30.9463 61.0574 30.4072 61.0518 29.8621V16.4601H63.5318V29.6181C63.5318 30.2361 63.6798 30.6851 63.9818 30.9801C64.2838 31.2751 64.6278 31.4301 65.0708 31.4301C65.5208 31.4301 65.8638 31.2821 66.1598 30.9801C66.4548 30.6781 66.6098 30.2361 66.6098 29.6181V16.4591H69.0888L69.1028 29.8621ZM72.1588 16.4591H74.6388V31.253H79.5558V33.7331H72.1858V16.4601L72.1588 16.4591ZM89.1868 21.4191H86.7068V20.8711C86.7068 20.3011 86.5808 19.8031 86.3068 19.4101C86.0328 18.9881 85.5898 18.7911 84.9648 18.7911C84.6208 18.7911 84.3468 18.8691 84.1218 18.9881C83.8968 19.1081 83.7218 19.2831 83.6018 19.4871C83.4818 19.6901 83.4048 19.9371 83.3558 20.1821C83.305 20.4602 83.2792 20.7423 83.2788 21.0251C83.2788 21.3691 83.2788 21.6431 83.3068 21.8961C83.3348 22.1211 83.3838 22.3461 83.4828 22.4931C83.5808 22.6691 83.7288 22.8171 83.9038 22.9431C84.0798 23.0691 84.3538 23.1891 84.6768 23.3431L86.5668 24.0881C87.1138 24.2851 87.5568 24.5381 87.9078 24.8331C88.2518 25.1071 88.5048 25.4511 88.7018 25.8231C88.8988 26.1951 89.0248 26.6451 89.0738 27.1371C89.1518 27.6361 89.1728 28.2051 89.1728 28.8231C89.1728 29.5391 89.0948 30.2351 88.9478 30.8601C88.7998 31.4781 88.5758 32.0261 88.2308 32.4761C87.9078 32.9261 87.4588 33.2691 86.9178 33.5431C86.3698 33.7891 85.7018 33.9431 84.9078 33.9431C84.3118 33.9431 83.7428 33.845 83.2438 33.621C82.7396 33.4295 82.2821 33.1326 81.9018 32.7501C81.5274 32.3776 81.225 31.9393 81.0098 31.4571C80.7878 30.9477 80.6777 30.3966 80.6868 29.8411V28.9211H83.1668V29.6941C83.1668 30.1441 83.2928 30.5641 83.5668 30.9091C83.8408 31.2531 84.2828 31.4571 84.9088 31.4571C85.3298 31.4571 85.6528 31.407 85.8988 31.281C86.1238 31.155 86.3208 30.9861 86.4468 30.7611C86.5738 30.5371 86.6438 30.2631 86.6718 29.9401C86.6998 29.6171 86.7218 29.2721 86.7218 28.8721C86.7218 28.4221 86.6928 28.0501 86.6718 27.7551C86.6555 27.5122 86.5884 27.2754 86.4748 27.0601C86.3661 26.8738 86.2111 26.7188 86.0248 26.6101C85.8498 26.4831 85.6048 26.3851 85.2808 26.2381L83.5178 25.5211C82.4498 25.0711 81.7328 24.5021 81.3608 23.7861C80.9888 23.0691 80.8128 22.1701 80.8128 21.0811C80.8128 20.4351 80.9118 19.8171 81.0868 19.2481C81.254 18.6971 81.5233 18.1824 81.8808 17.7311C82.2248 17.3091 82.6748 16.9861 83.1948 16.7121C83.7428 16.4661 84.3608 16.3401 85.0558 16.3401C85.6738 16.3401 86.2218 16.4661 86.7418 16.6841C87.2618 16.9021 87.6828 17.2041 88.0558 17.5761C88.4278 17.9481 88.7018 18.3701 88.8988 18.8191C89.0948 19.2691 89.1938 19.7611 89.1938 20.2311L89.1868 21.4191ZM91.7438 16.4591H99.1128V18.7911H94.2228V23.8561H98.4948V26.1881H94.2238V31.253H99.1128V33.7331H91.7428V16.4601L91.7438 16.4591ZM106.686 16.4591H114.055V18.7911H109.165V24.0251H113.436V26.3571H109.166V33.7261H106.686V16.4591ZM116.386 16.4591H123.756V18.7911H118.866V23.8561H123.138V26.1881H118.867V31.253H123.756V33.7331H116.386V16.4591ZM126.095 16.4591H133.464V18.7911H128.574V23.8561H132.846V26.1881H128.575V31.253H133.464V33.7331H126.095V16.4591ZM135.796 16.4591H139.47C140.882 16.4591 141.95 16.8591 142.695 17.6251C143.439 18.3911 143.812 19.5151 143.812 20.8991V28.9911C143.812 30.6071 143.412 31.7941 142.645 32.5671C141.873 33.3401 140.735 33.7121 139.267 33.7121H135.817V16.4591H135.796ZM138.283 31.4011H139.428C140.124 31.4011 140.622 31.2251 140.918 30.8811C141.212 30.5371 141.367 29.9891 141.367 29.2441V20.9271C141.367 20.2601 141.219 19.7121 140.945 19.3391C140.671 18.9671 140.173 18.7911 139.428 18.7911H138.283V31.4011ZM146.867 16.4591H150.492C151.286 16.4591 151.953 16.5861 152.529 16.8311C153.077 17.0771 153.548 17.4011 153.892 17.8011C154.236 18.2011 154.51 18.6711 154.665 19.1911C154.815 19.724 154.891 20.2753 154.89 20.8291V21.4471C154.89 21.9171 154.862 22.3171 154.791 22.6411C154.721 22.9641 154.616 23.2381 154.468 23.4841C154.321 23.7301 154.145 23.9341 153.92 24.1301C153.695 24.3271 153.47 24.5021 153.204 24.6501C153.754 24.9057 154.207 25.3318 154.496 25.8651C154.77 26.4131 154.918 27.1301 154.918 28.0221V28.9921C154.918 30.5091 154.545 31.6751 153.828 32.4901C153.112 33.3051 151.918 33.7051 150.302 33.7051H146.924V16.4591H146.867ZM149.354 31.253H150.422C150.921 31.253 151.314 31.1761 151.588 31.0291C151.862 30.8811 152.087 30.6841 152.234 30.4311C152.382 30.1791 152.459 29.8621 152.508 29.5111C152.536 29.1671 152.558 28.7671 152.558 28.3451C152.558 27.8951 152.529 27.5231 152.48 27.2001C152.442 26.908 152.341 26.6275 152.185 26.3781C152.038 26.1531 151.813 26.0061 151.539 25.8791C151.265 25.7531 150.893 25.7041 150.45 25.7041H149.361L149.354 31.2541V31.253ZM149.354 23.5331H150.471C151.293 23.5331 151.862 23.3361 152.136 22.9151C152.41 22.4931 152.557 21.8961 152.557 21.1021C152.557 20.3301 152.41 19.7401 152.087 19.3671C151.764 18.9671 151.195 18.7981 150.373 18.7981H149.354V23.5331ZM161.444 21.4191H161.394L160.179 27.6711H162.659L161.444 21.4191ZM160.397 16.4591H162.455L166.305 33.7331H163.825L163.109 30.01H159.729L159.013 33.7331H156.533L160.397 16.4591ZM176.112 29.8621C176.112 30.4101 176.013 30.9021 175.817 31.4011C175.62 31.9001 175.346 32.3211 174.974 32.6651C174.629 33.0381 174.201 33.3121 173.73 33.5361C173.26 33.7611 172.74 33.8601 172.192 33.8601C171.722 33.8601 171.25 33.782 170.752 33.663C170.268 33.5457 169.818 33.317 169.438 32.9951C169.023 32.6606 168.692 32.2353 168.468 31.7521C168.223 31.2321 168.096 30.5861 168.096 29.7921V20.2811C168.096 19.7111 168.195 19.1911 168.391 18.6931C168.588 18.1941 168.862 17.8011 169.213 17.4291C169.573 17.0657 170.004 16.779 170.478 16.5861C170.999 16.3845 171.555 16.284 172.114 16.2901C172.684 16.2901 173.204 16.3891 173.702 16.5861C174.201 16.7821 174.594 17.0841 174.967 17.4291C175.339 17.7731 175.613 18.2221 175.81 18.7421C176.006 19.2621 176.105 19.8101 176.105 20.4071V21.3771H173.625V20.5551C173.631 20.0979 173.482 19.6522 173.203 19.2901C173.073 19.1175 172.904 18.978 172.71 18.8828C172.516 18.7876 172.302 18.7394 172.086 18.7421C171.468 18.7421 171.068 18.9391 170.871 19.3121C170.674 19.6831 170.576 20.1821 170.576 20.7521V29.5881C170.576 30.0881 170.674 30.5081 170.899 30.8531C171.124 31.1971 171.517 31.3731 172.065 31.3731C172.241 31.3731 172.41 31.345 172.585 31.295C172.761 31.246 172.929 31.1481 173.105 31.0211C173.273 30.8732 173.401 30.685 173.477 30.4741C173.576 30.2491 173.625 29.9541 173.625 29.6311V28.788H176.105L176.112 29.8621ZM178.865 16.4591H181.345V24.3551H181.395L185.019 16.4591H187.499L184.119 23.3861L188.117 33.7331H185.483L182.687 26.0621L181.345 28.5701V33.7331H178.865V16.4591Z" fill="white"/>
<path fill-rule="evenodd" clip-rule="evenodd" d="M56.6401 3.82105H57.8071V4.79105C57.8071 4.61505 57.9831 4.49605 58.1301 4.34105C58.257 4.19143 58.4093 4.06549 58.5801 3.96905C58.7761 3.84305 59.0011 3.74405 59.2261 3.69505C59.4721 3.61805 59.7461 3.59705 59.9991 3.59705H60.1461V4.56705H59.9211C59.5954 4.59118 59.2793 4.68818 58.9962 4.85088C58.713 5.01358 58.47 5.23783 58.2851 5.50705C57.9473 6.06743 57.7834 6.71545 57.8141 7.36905V10.544H56.6481L56.6401 3.82105Z" fill="white"/>
<path d="M66.8199 9.48297C66.4957 9.91319 66.0677 10.2542 65.5759 10.474C65.0491 10.694 64.4828 10.8039 63.9119 10.797C63.4119 10.797 62.9419 10.699 62.4999 10.502C62.0999 10.326 61.7269 10.052 61.4319 9.72897C61.1336 9.3968 60.9063 9.00716 60.7639 8.58397C60.6169 8.13397 60.5189 7.66397 60.5399 7.17197C60.5399 6.67397 60.6169 6.18197 60.7859 5.71197C60.9329 5.28997 61.1859 4.88897 61.5019 4.56597C61.806 4.24088 62.1778 3.98656 62.5909 3.82097C63.0333 3.64434 63.5047 3.55175 63.9809 3.54797C64.4309 3.54797 64.8529 3.62497 65.2739 3.79297C65.6469 3.94097 65.9909 4.19297 66.2929 4.48897C66.5669 4.81197 66.7429 5.20497 66.8619 5.63397C66.9873 6.12932 67.0372 6.64074 67.0099 7.15097V7.39697H61.7689C61.7689 7.71997 61.8459 8.01497 61.9659 8.28897C62.0919 8.56297 62.2399 8.80897 62.4359 9.03397C62.6329 9.23097 62.8579 9.40597 63.1039 9.50397C63.3779 9.63097 63.6519 9.67997 63.9469 9.67997C64.3679 9.70797 64.7899 9.60297 65.1899 9.40597C65.5339 9.20997 65.8569 8.95597 66.0819 8.63297L66.8199 9.48297ZM65.9279 6.47697C65.9048 5.96959 65.7029 5.48676 65.3579 5.11397C65.0139 4.76997 64.5159 4.61497 63.8979 4.61497C63.35 4.5695 62.8059 4.73834 62.3799 5.08597C62.0074 5.45349 61.7636 5.93159 61.6849 6.44897L65.9279 6.47697ZM68.1119 4.61497C68.4447 4.25301 68.8627 3.98006 69.3279 3.82097C69.7979 3.64597 70.2689 3.57597 70.7679 3.57597C71.7579 3.57597 72.4329 3.82097 72.8749 4.29197C73.3249 4.76197 73.4929 5.48597 73.4929 6.47697V10.544H72.3269V9.60297C72.3269 9.94697 71.9059 10.249 71.5329 10.474C71.1329 10.699 70.7119 10.818 70.2689 10.797C69.9513 10.7931 69.6354 10.7507 69.3279 10.671C69.0473 10.5877 68.785 10.4519 68.5549 10.271C68.3348 10.0975 68.157 9.87624 68.0349 9.62397C67.8972 9.3548 67.8294 9.05525 67.8379 8.75297C67.8086 8.26895 67.9589 7.79112 68.2599 7.41097C68.5539 7.09077 68.9201 6.84531 69.3279 6.69497C69.7779 6.54697 70.2479 6.46997 70.7179 6.44897C71.2179 6.39897 71.6599 6.44897 72.0809 6.44897H72.3759V6.12597C72.3759 5.62597 72.2989 5.25497 72.0039 4.98097C71.6599 4.70697 71.2309 4.55897 70.8099 4.60797C70.4659 4.60797 70.0929 4.68597 69.7699 4.78397C69.4297 4.91301 69.1174 5.10617 68.8499 5.35297L68.1119 4.61497ZM71.3649 7.42497C70.6479 7.42497 70.0719 7.47497 69.6509 7.67097C69.2509 7.81897 69.0049 8.21897 69.0329 8.66097C69.0178 8.83376 69.0488 9.00747 69.1228 9.16436C69.1967 9.32125 69.311 9.4557 69.4539 9.55397C69.7769 9.74997 70.1499 9.82797 70.4939 9.82797C70.7889 9.82797 71.0909 9.77797 71.3369 9.65197C71.5619 9.55397 71.7869 9.40597 71.9549 9.20197C72.0982 9.01012 72.1988 8.78987 72.2499 8.55597C72.3269 8.28197 72.3479 8.03597 72.3269 7.76197V7.44597L71.3649 7.42497Z" fill="white"/>
<path fill-rule="evenodd" clip-rule="evenodd" d="M74.688 0H75.854V4.714C75.854 4.566 76.079 4.44 76.198 4.314C76.3499 4.16216 76.5255 4.03616 76.718 3.941C76.914 3.814 77.139 3.744 77.336 3.667C77.5779 3.59668 77.8291 3.56364 78.081 3.569C78.481 3.569 78.853 3.618 79.226 3.765C79.521 3.892 79.795 4.088 80.019 4.335C80.216 4.608 80.364 4.903 80.441 5.226C80.518 5.599 80.567 5.971 80.539 6.371V10.544H79.38V6.505C79.38 5.936 79.331 5.465 79.085 5.142C78.811 4.798 78.39 4.594 77.968 4.643C77.645 4.643 77.35 4.693 77.048 4.84C76.7962 4.9747 76.576 5.16152 76.402 5.388C76.2201 5.64325 76.0847 5.92863 76.002 6.231C75.9042 6.57857 75.8544 6.93791 75.854 7.299V10.572H74.688V0ZM88.983 0H90.149V10.551H88.983V0ZM91.322 3.821H92.488V10.551H91.322V3.821ZM91.322 1.44H92.488V2.634H91.322V1.44ZM53.466 10.797C51.878 10.797 50.487 9.68 50.066 8.114C49.666 6.526 50.34 4.861 51.702 4.067C52.3705 3.67175 53.1526 3.51304 53.9223 3.61645C54.692 3.71985 55.4045 4.07933 55.945 4.637L55.201 5.381C54.484 4.664 53.417 4.44 52.496 4.833C52.0373 5.03341 51.6473 5.36363 51.3741 5.78298C51.1008 6.20232 50.9562 6.69247 50.958 7.193C50.958 8.24 51.555 9.153 52.496 9.553C53.438 9.954 54.506 9.729 55.201 9.006L55.945 9.75C55.6232 10.0822 55.2377 10.3461 54.8116 10.526C54.3855 10.7059 53.9285 10.7981 53.466 10.797ZM97.104 10.797C96.319 10.794 95.5576 10.5281 94.9414 10.0418C94.3251 9.5555 93.8895 8.8768 93.704 8.114C93.304 6.526 93.978 4.861 95.34 4.046C96.731 3.224 98.467 3.477 99.612 4.616L98.867 5.36C98.15 4.643 97.083 4.419 96.162 4.812C95.7034 5.01241 95.3133 5.34263 95.0401 5.76198C94.7668 6.18132 94.6222 6.67147 94.624 7.172C94.624 8.219 95.221 9.132 96.162 9.532C96.6152 9.72592 97.1166 9.77746 97.5997 9.67976C98.0828 9.58207 98.5248 9.33976 98.867 8.985L99.612 9.729C99.2866 10.0657 98.897 10.3337 98.4662 10.5171C98.0354 10.7006 97.5722 10.7957 97.104 10.797Z" fill="white"/>
<path d="M84.9371 10.797C82.9771 10.797 81.4102 9.18097 81.4102 7.17197C81.4102 5.18397 82.9981 3.54797 84.9371 3.54797C86.8971 3.54797 88.4632 5.16297 88.4632 7.17197C88.4632 9.18197 86.8761 10.797 84.9371 10.797ZM84.9371 4.64297C83.5741 4.64297 82.4572 5.78797 82.4572 7.19997C82.4572 8.61197 83.5741 9.75697 84.9371 9.75697C86.3001 9.75697 87.4172 8.61197 87.4172 7.19997C87.4172 6.53297 87.1431 5.88697 86.7001 5.38797C86.2571 4.88897 85.5831 4.64297 84.9371 4.64297Z" fill="white"/>
</svg>
