<svg width="190" height="42" xmlns="http://www.w3.org/2000/svg"><g fill="#333" fill-rule="evenodd"><path d="M12.139 37.438c-.548 0-1.04-.323-1.265-.843L6.133 24.878h-4.77A1.38 1.38 0 010 23.508c0-.745.618-1.363 1.363-1.363h5.662c.548 0 1.04.344 1.264.843l3.548 8.739 6.75-26.385a1.335 1.335 0 011.342-1.019c.619 0 1.166.45 1.314 1.068l4.145 18.714 3.645-8.788a1.4 1.4 0 011.146-.843c.498-.05.99.197 1.264.618l4.468 7.025h4.987c.745 0 1.363.618 1.363 1.363 0 .744-.618 1.363-1.363 1.363h-5.732a1.39 1.39 0 01-1.145-.619l-3.45-5.458-4.291 10.376a1.372 1.372 0 01-1.363.843 1.343 1.343 0 01-1.215-1.068l-3.85-17.372-6.357 24.874c-.148.57-.647.97-1.216 1.019h-.14z"/><path d="M50.487 20.46h3.723c.668 0 1.265.097 1.785.273.52.176.99.499 1.412.941.421.45.716.99.87 1.588.176.597.247 1.44.247 2.459a14 14 0 01-.127 1.96 4.23 4.23 0 01-.569 1.517c-.344.569-.794 1.019-1.363 1.314-.569.295-1.313.47-2.234.47h-1.264v6.751h-2.48V20.46zm2.48 8.19h1.194c.499 0 .892-.077 1.166-.225.274-.147.47-.344.597-.597s.197-.548.225-.92c.028-.344.028-.745.028-1.194 0-.4 0-.794-.028-1.145a2.649 2.649 0 00-.225-.942 1.389 1.389 0 00-.569-.618c-.245-.147-.618-.225-1.117-.225h-1.292v5.859h.02v.007zm16.136 5.212c0 .57-.098 1.09-.323 1.588-.225.499-.499.92-.871 1.264a4.466 4.466 0 01-1.265.872c-.499.196-.99.323-1.566.323a3.75 3.75 0 01-1.567-.323 3.426 3.426 0 01-1.264-.872 4.466 4.466 0 01-.871-1.264 4.27 4.27 0 01-.324-1.588V20.46h2.48v13.158c0 .618.148 1.067.45 1.362.302.295.646.45 1.089.45.45 0 .793-.148 1.089-.45.295-.302.45-.744.45-1.362V20.459h2.479l.014 13.403zm3.056-13.403h2.48v14.794h4.917v2.48h-7.37V20.46h-.027zm17.028 4.96h-2.48v-.548c0-.57-.126-1.068-.4-1.461-.274-.422-.717-.619-1.342-.619-.344 0-.618.078-.843.197-.225.12-.4.295-.52.499-.12.203-.197.45-.246.695a4.72 4.72 0 00-.077.843c0 .344 0 .618.028.871.028.225.077.45.176.597.098.176.246.324.421.45.176.126.45.246.773.4l1.89.745c.547.197.99.45 1.341.745.344.274.597.618.794.99.197.372.323.822.372 1.314.078.499.099 1.068.099 1.686 0 .716-.078 1.412-.225 2.037-.148.618-.372 1.166-.717 1.616-.323.45-.772.793-1.313 1.067-.548.246-1.216.4-2.01.4-.596 0-1.165-.098-1.664-.322a3.79 3.79 0 01-1.342-.871 4.29 4.29 0 01-.892-1.293 3.885 3.885 0 01-.323-1.616v-.92h2.48v.773c0 .45.126.87.4 1.215.274.344.716.548 1.342.548.421 0 .744-.05.99-.176.225-.126.422-.295.548-.52.127-.224.197-.498.225-.821.028-.323.05-.668.05-1.068 0-.45-.029-.822-.05-1.117a1.741 1.741 0 00-.197-.695 1.251 1.251 0 00-.45-.45c-.175-.127-.42-.225-.744-.372l-1.763-.717c-1.068-.45-1.785-1.019-2.157-1.735-.372-.717-.548-1.616-.548-2.705 0-.646.099-1.264.274-1.833a4.59 4.59 0 01.794-1.517c.344-.422.794-.745 1.314-1.019.548-.246 1.166-.372 1.861-.372.618 0 1.166.126 1.686.344.52.218.941.52 1.314.892.372.372.646.794.843 1.243.196.45.295.942.295 1.412l-.007 1.188zm2.557-4.96h7.369v2.332h-4.89v5.065h4.272v2.332h-4.271v5.065h4.889v2.48h-7.37V20.46zm14.942 0h7.369v2.332h-4.89v5.234h4.271v2.332h-4.27v7.369h-2.48V20.459zm9.7 0h7.37v2.332h-4.89v5.065h4.272v2.332h-4.271v5.065h4.889v2.48h-7.37V20.46zm9.709 0h7.369v2.332h-4.89v5.065h4.272v2.332h-4.271v5.065h4.889v2.48h-7.369V20.46zm9.701 0h3.674c1.412 0 2.48.4 3.225 1.166.744.766 1.117 1.89 1.117 3.274v8.092c0 1.616-.4 2.803-1.167 3.576-.772.773-1.91 1.145-3.378 1.145h-3.45V20.459h-.02zm2.487 14.942h1.145c.696 0 1.194-.176 1.49-.52.294-.344.449-.892.449-1.637v-8.317c0-.667-.148-1.215-.422-1.588-.274-.372-.772-.548-1.517-.548h-1.145v12.61zm8.584-14.942h3.625c.794 0 1.461.127 2.037.372.548.246 1.019.57 1.363.97.344.4.618.87.773 1.39a5.98 5.98 0 01.225 1.638v.618c0 .47-.028.87-.099 1.194-.07.323-.175.597-.323.843-.147.246-.323.45-.548.646-.225.197-.45.372-.716.52a2.823 2.823 0 011.292 1.215c.274.548.422 1.265.422 2.157v.97c0 1.517-.373 2.683-1.09 3.498-.716.815-1.91 1.215-3.526 1.215h-3.378V20.459h-.057zm2.487 14.794h1.068c.499 0 .892-.077 1.166-.224.274-.148.499-.345.646-.598.148-.252.225-.569.274-.92.028-.344.05-.744.05-1.166 0-.45-.029-.822-.078-1.145a2.04 2.04 0 00-.295-.822c-.147-.225-.372-.372-.646-.499-.274-.126-.646-.175-1.089-.175h-1.089l-.007 5.55zm0-7.72h1.117c.822 0 1.391-.197 1.665-.618.274-.422.421-1.019.421-1.813 0-.772-.147-1.362-.47-1.735-.323-.4-.892-.569-1.714-.569h-1.019v4.735zm12.09-2.114h-.05l-1.215 6.252h2.48l-1.215-6.252zm-1.047-4.96h2.058l3.85 17.274h-2.48l-.716-3.723h-3.38l-.716 3.723h-2.48l3.864-17.274zm15.715 13.403c0 .548-.099 1.04-.295 1.539-.197.499-.471.92-.843 1.264-.345.373-.773.647-1.244.871-.47.225-.99.324-1.538.324-.47 0-.942-.078-1.44-.197a3.198 3.198 0 01-1.314-.668 3.471 3.471 0 01-.97-1.243c-.245-.52-.372-1.166-.372-1.96v-9.511c0-.57.099-1.09.295-1.588.197-.499.471-.892.822-1.264a3.8 3.8 0 011.265-.843 4.406 4.406 0 011.636-.296c.57 0 1.09.099 1.588.296.499.196.892.498 1.265.843.372.344.646.793.843 1.313.196.52.295 1.068.295 1.665v.97h-2.48v-.822a2.03 2.03 0 00-.422-1.265 1.378 1.378 0 00-1.117-.548c-.618 0-1.018.197-1.215.57-.197.371-.295.87-.295 1.44v8.836c0 .5.098.92.323 1.265.225.344.618.52 1.166.52.176 0 .345-.028.52-.078.176-.049.344-.147.52-.274a1.32 1.32 0 00.372-.547c.099-.225.148-.52.148-.843v-.843h2.48l.007 1.074zm2.753-13.403h2.48v7.896h.05l3.624-7.896h2.48l-3.38 6.927 3.998 10.347h-2.634l-2.796-7.671-1.342 2.508v5.163h-2.48V20.46z" fill-rule="nonzero"/><path d="M56.64 7.821h1.167v.97c0-.176.176-.295.323-.45a1.66 1.66 0 01.45-.372c.196-.126.421-.225.646-.274.246-.077.52-.098.773-.098h.147v.97h-.225a2.18 2.18 0 00-1.636.94 3.306 3.306 0 00-.471 1.862v3.175h-1.166l-.007-6.723z"/><path d="M66.82 13.483a3.185 3.185 0 01-1.244.991 4.187 4.187 0 01-1.664.323c-.5 0-.97-.098-1.412-.295-.4-.176-.773-.45-1.068-.773a3.277 3.277 0 01-.668-1.145c-.147-.45-.245-.92-.224-1.412 0-.498.077-.99.246-1.46.147-.422.4-.823.716-1.146a3.039 3.039 0 011.089-.745 3.83 3.83 0 011.39-.273c.45 0 .872.077 1.293.245.373.148.717.4 1.019.696.274.323.45.716.569 1.145a5.08 5.08 0 01.148 1.517v.246h-5.241c0 .323.077.618.197.892.126.274.274.52.47.745.197.197.422.372.668.47.274.127.548.176.843.176.421.028.843-.077 1.243-.274.344-.196.667-.45.892-.773l.738.85zm-.892-3.006a2.151 2.151 0 00-.57-1.363c-.344-.344-.842-.499-1.46-.499a2.123 2.123 0 00-1.518.471 2.427 2.427 0 00-.695 1.363l4.243.028zm2.184-1.862a2.947 2.947 0 011.216-.794c.47-.175.941-.245 1.44-.245.99 0 1.665.245 2.107.716.45.47.618 1.194.618 2.185v4.067h-1.166v-.941c0 .344-.421.646-.794.871-.4.225-.821.344-1.264.323a3.94 3.94 0 01-.941-.126 2.317 2.317 0 01-.773-.4 1.85 1.85 0 01-.52-.647 1.8 1.8 0 01-.197-.871 1.97 1.97 0 01.422-1.342 2.733 2.733 0 011.068-.716c.45-.148.92-.225 1.39-.246.5-.05.942 0 1.363 0h.295v-.323c0-.5-.077-.871-.372-1.145-.344-.274-.773-.422-1.194-.373-.344 0-.717.078-1.04.176a2.843 2.843 0 00-.92.569l-.738-.738zm3.253 2.81c-.717 0-1.293.05-1.714.246-.4.148-.646.548-.618.99a.98.98 0 00.421.893c.323.196.696.274 1.04.274.295 0 .597-.05.843-.176.225-.098.45-.246.618-.45a1.68 1.68 0 00.295-.646c.077-.274.098-.52.077-.794v-.316l-.962-.02z" fill-rule="nonzero"/><path d="M74.688 4h1.166v4.714c0-.148.225-.274.344-.4a1.97 1.97 0 01.52-.373c.196-.127.421-.197.618-.274a2.48 2.48 0 01.745-.098c.4 0 .772.049 1.145.196.295.127.569.323.793.57.197.273.345.568.422.891.077.373.126.745.098 1.145v4.173H79.38v-4.039c0-.569-.049-1.04-.295-1.363-.274-.344-.695-.548-1.117-.499-.323 0-.618.05-.92.197a2.01 2.01 0 00-.646.548 2.661 2.661 0 00-.4.843 3.955 3.955 0 00-.148 1.068v3.273h-1.166V4zm14.295 0h1.166v10.551h-1.166zm2.339 3.821h1.166v6.73h-1.166zm0-2.381h1.166v1.194h-1.166zm-37.856 9.357c-1.588 0-2.979-1.117-3.4-2.683-.4-1.588.274-3.253 1.636-4.047a3.458 3.458 0 014.243.57l-.744.744c-.717-.717-1.784-.941-2.705-.548a2.565 2.565 0 00-1.538 2.36c0 1.047.597 1.96 1.538 2.36.942.401 2.01.176 2.705-.547l.744.744a3.442 3.442 0 01-2.48 1.047zm43.638 0a3.513 3.513 0 01-3.4-2.683c-.4-1.588.274-3.253 1.636-4.068 1.391-.822 3.127-.569 4.272.57l-.745.744c-.717-.717-1.784-.941-2.705-.548a2.565 2.565 0 00-1.538 2.36c0 1.047.597 1.96 1.538 2.36a2.43 2.43 0 002.705-.547l.745.744a3.501 3.501 0 01-2.508 1.068z"/><path d="M84.937 14.797c-1.96 0-3.527-1.616-3.527-3.625 0-1.988 1.588-3.624 3.527-3.624 1.96 0 3.526 1.615 3.526 3.624 0 2.01-1.587 3.625-3.526 3.625zm0-6.154c-1.363 0-2.48 1.145-2.48 2.557s1.117 2.557 2.48 2.557 2.48-1.145 2.48-2.557c0-.667-.274-1.313-.717-1.812-.443-.499-1.117-.745-1.763-.745z" fill-rule="nonzero"/></g></svg>